
<svg xmlns="http://www.w3.org/2000/svg" version="1.1" xmlns:xlink="http://www.w3.org/1999/xlink" preserveAspectRatio="none" x="0px" y="0px" width="150px" height="150px" viewBox="0 0 150 150">
<defs>
<filter id="Filter_1" x="-20%" y="-20%" width="140%" height="140%" color-interpolation-filters="sRGB">
<feColorMatrix in="SourceGraphic" type="matrix" values="1 0 0 0 0 0 1 0 0 0 0 0 1 0 0 0 0 0 0 0" result="result1"/>
</filter>
</defs>

<g id="Layer_1">
<g id="Layer_1" transform="matrix( 3.1513824462890625, 0, 0, 3.1513824462890625, 41.85,74.75) ">
<g id="Layer_1" transform="matrix( 1, 0, 0, 1, 0.05,0.05) ">
<g transform="matrix( 1.0652618408203125, 0, 0, 1, -6.95,-12.6) ">
<g>
<g>
<path fill="#3E3C48" stroke="none" d="
M 3.65 16.9
L 3.65 14.3 13 14.3 13 0 0 0 0.05 17.1
Q 0.55 21 3.25 23.2 5.7 25.15 9.1 25.15
L 11.2 25.15 11.2 21.55 9.1 21.55
Q 6.45 21.55 5 19.9 3.95 18.75 3.65 16.9
M 3.65 10.9
L 3.65 3.1 9.3 3.1 9.3 10.9 3.65 10.9 Z"/>
</g>
</g>
</g>
</g>
</g>
</g>

<g id="Layer_1">
<g id="Layer_1" transform="matrix( 1, 0, 0, 1, 66.3,74.8) ">
<g transform="matrix( 1.003509521484375, 0, 0, 1, -6.95,-12.6) ">
<g filter="url(#Filter_1)">
<g>
<path fill="#3E3C48" stroke="none" d="
M 13.8 3.2
L 13.8 0 0.95 0
Q 0.35 0 0.15 0.55 -0.1 1.1 0.35 1.5 3.15 4.3 4.65 6.45
L 6.65 9
Q 8.45 11.45 9.2 13.35 10.15 15.75 9.8 18.15 9.6 19.8 8.55 21.05 8.15 21.6 7.45 21.75 6.75 21.95 6.1 21.7 4.5 21.15 4 18.6 3.3 14.25 5.9 10.15
L 3.5 7.25
Q 3.15 7.55 2.75 8.15 0.75 11.25 0.2 14 -0.4 17.1 0.7 20.4 2.3 25.25 7.25 25.15 9.25 25.1 10.9 23.65 12.55 22.25 13.05 20.1 14.65 13.8 10.55 8.15
L 7.05 3.2 13.8 3.2 Z"/>
</g>
</g>
</g>
</g>
</g>

<g id="Layer_1">
<g id="Layer_1" transform="matrix( 1, 0, 0, 1, 108.3,74.9) ">
<g transform="matrix( 1.00360107421875, 0, 0, 1, -6.9,-12.5) ">
<g filter="url(#Filter_1)">
<g>
<path fill="#3E3C48" stroke="none" d="
M 13.8 3.1
L 13.8 0 0 0 0 3.15 5 3.15 5 11 1.55 11 1.55 14.25 5 14.25 5 21.75 0 21.75 0 24.95 8.95 24.95 8.95 3.1 13.8 3.1 Z"/>
</g>
</g>
</g>
</g>
</g>

<g id="Layer_1">
<g id="Layer_1" transform="matrix( 1, 0, 0, 1, 159.15,74.7) ">
<g transform="matrix( 1, 0, 0, 1, -6.9,-12.5) ">
<g filter="url(#Filter_1)">
<g>
<path fill="#3E3C48" stroke="none" d="
M 13.8 3.2
L 13.8 0 4.9 0 4.9 21.85 0 21.85 0 24.95 13.85 24.95 13.8 21.8 8.85 21.8 8.85 13.95 12.25 13.95 12.25 10.7 8.8 10.7 8.8 3.2 13.8 3.2 Z"/>
</g>
</g>
</g>
</g>
</g>

<g id="Layer_1">
<g id="Layer_1" transform="matrix( 1, 0, 0, 1, 223.8,74.8) ">
<g transform="matrix( 1.003509521484375, 0, 0, 1, -6.9,-12.6) ">
<g filter="url(#Filter_1)">
<g>
<path fill="#3E3C48" stroke="none" d="
M 13.6 11.15
Q 14.2 8.05 13.15 4.75 11.55 -0.05 6.6 0 4.55 0.05 2.95 1.5 1.3 2.9 0.75 5.05 -0.8 11.3 3.25 16.95
L 6.75 21.95 0 21.95 0 25.15 12.85 25.15
Q 13.45 25.15 13.7 24.6 13.9 24 13.5 23.6 10.5 20.6 9.15 18.65
L 7.2 16.1
Q 5.4 13.7 4.65 11.8 3.7 9.4 4 6.95 4.2 5.4 5.25 4.1 5.7 3.55 6.4 3.35 7.05 3.15 7.7 3.4 9.4 4.1 9.8 6.55 10.55 10.7 7.95 15
L 10.35 17.9 11.1 16.95
Q 13.05 13.85 13.6 11.15 Z"/>
</g>
</g>
</g>
</g>
</g>

<g id="Layer_1">
<g id="Layer_1" transform="matrix( 3.1513824462890625, 0, 0, 3.1513824462890625, 105.95,74.9) ">
<g transform="matrix( 1.0652618408203125, 0, 0, 1, -6.9,-12.6) ">
<g>
<g>
<path fill="#3E3C48" stroke="none" d="
M 3.9 3.6
Q 8.55 3.6 9.4 8.2
L 9.4 10.85 0 10.85 0 25.15 13 25.15 13 8.05
Q 12.5 4.1 9.75 1.95 7.3 0 3.9 0
L 1.85 0 1.85 3.6 3.9 3.6
M 9.4 14.25
L 9.4 22.05 3.7 22.05 3.7 14.25 9.4 14.25 Z"/>
</g>
</g>
</g>
</g>
</g>
</svg>
